<svg xmlns="http://www.w3.org/2000/svg" viewBox="0 0 128 128" fill="none">
  <defs>
    <linearGradient id="g" x1="0" y1="0" x2="1" y2="1">
      <stop offset="0%" stop-color="#fafafa"/>
      <stop offset="100%" stop-color="#a1a1aa"/>
    </linearGradient>
    <linearGradient id="gbg" x1="0.2" y1="0" x2="0.8" y2="1">
      <stop offset="0%" stop-color="#18181b"/>
      <stop offset="100%" stop-color="#09090b"/>
    </linearGradient>
    <radialGradient id="gg" cx="0.5" cy="0.5" r="0.5">
      <stop offset="0%" stop-color="rgba(250,250,250,0.12)"/>
      <stop offset="100%" stop-color="rgba(250,250,250,0)"/>
    </radialGradient>
  </defs>
  <rect x="4" y="4" width="120" height="120" rx="24" fill="url(#gbg)"/>
  <circle cx="64" cy="64" r="56" fill="url(#gg)"/>
  <circle cx="64" cy="64" r="50" stroke="rgba(250,250,250,0.15)" stroke-width="1"/>
  <ellipse cx="64" cy="64" rx="50" ry="20" stroke="rgba(250,250,250,0.2)" stroke-width="1.2"/>
  <ellipse cx="64" cy="64" rx="20" ry="50" stroke="rgba(250,250,250,0.2)" stroke-width="1.2"/>
  <ellipse cx="64" cy="64" rx="50" ry="12" stroke="rgba(250,250,250,0.10)" stroke-width="0.8"/>
  <ellipse cx="64" cy="64" rx="12" ry="50" stroke="rgba(250,250,250,0.10)" stroke-width="0.8"/>
  <circle cx="64" cy="64" r="30" fill="url(#g)" opacity="0.95"/>
  <circle cx="64" cy="64" r="28" fill="url(#gbg)"/>
  <circle cx="64" cy="64" r="27" stroke="rgba(250,250,250,0.08)" stroke-width="0.5"/>
  <line x1="64" y1="37" x2="64" y2="41" stroke="url(#g)" stroke-width="2.5" stroke-linecap="round"/>
  <line x1="64" y1="87" x2="64" y2="83" stroke="url(#g)" stroke-width="2.5" stroke-linecap="round"/>
  <line x1="37" y1="64" x2="41" y2="64" stroke="url(#g)" stroke-width="2.5" stroke-linecap="round"/>
  <line x1="87" y1="64" x2="83" y2="64" stroke="url(#g)" stroke-width="2.5" stroke-linecap="round"/>
  <line x1="64" y1="64" x2="64" y2="46" stroke="url(#g)" stroke-width="3" stroke-linecap="round"/>
  <line x1="64" y1="64" x2="78" y2="64" stroke="url(#g)" stroke-width="2.5" stroke-linecap="round"/>
  <circle cx="64" cy="64" r="3.5" fill="url(#g)"/>
  <circle cx="64" cy="64" r="1.5" fill="url(#gbg)"/>
</svg>
